<svg viewBox="0 0 29 26" fill="none" xmlns="http://www.w3.org/2000/svg">
<path d="M7.63158 1.52632C7.63158 0.683355 6.94822 0 6.10526 0C5.2623 0 4.57895 0.683355 4.57895 1.52632V3.5614C4.57895 4.12338 4.12338 4.57895 3.5614 4.57895H1.52632C0.683355 4.57895 0 5.2623 0 6.10526C0 6.94822 0.683355 7.63158 1.52632 7.63158H3.5614C4.12338 7.63158 4.57895 8.08715 4.57895 8.64912V10.6842C4.57895 11.5272 5.2623 12.2105 6.10526 12.2105C6.94822 12.2105 7.63158 11.5272 7.63158 10.6842V8.64912C7.63158 8.08715 8.08715 7.63158 8.64912 7.63158H10.6842C11.5272 7.63158 12.2105 6.94822 12.2105 6.10526C12.2105 5.2623 11.5272 4.57895 10.6842 4.57895H8.64912C8.08715 4.57895 7.63158 4.12338 7.63158 3.5614V1.52632Z" fill='currentColor'/>
<path d="M15.7719 17.807C15.7719 17.245 16.2275 16.7895 16.7895 16.7895H26.9649C27.5269 16.7895 27.9825 17.245 27.9825 17.807V18.8246C27.9825 19.3865 27.5269 19.8421 26.9649 19.8421H16.7895C16.2275 19.8421 15.7719 19.3865 15.7719 18.8246V17.807Z" fill='currentColor'/>
<path d="M15.7719 11.7018C15.7719 11.1398 16.2275 10.6842 16.7895 10.6842H27.9825C28.5444 10.6842 29 11.1398 29 11.7018V12.7193C29 13.2813 28.5444 13.7368 27.9825 13.7368H16.7895C16.2275 13.7368 15.7719 13.2813 15.7719 12.7193V11.7018Z" fill='currentColor'/>
<path d="M15.7719 23.9123C15.7719 23.3503 16.2275 22.8947 16.7895 22.8947H27.9825C28.5444 22.8947 29 23.3503 29 23.9123V24.9298C29 25.4918 28.5444 25.9474 27.9825 25.9474H16.7895C16.2275 25.9474 15.7719 25.4918 15.7719 24.9298V23.9123Z" fill='currentColor'/>
<path d="M10.6842 17.807C10.6842 17.245 11.1398 16.7895 11.7018 16.7895H12.7193C13.2813 16.7895 13.7368 17.245 13.7368 17.807V18.8246C13.7368 19.3865 13.2813 19.8421 12.7193 19.8421H11.7018C11.1398 19.8421 10.6842 19.3865 10.6842 18.8246V17.807Z" fill='currentColor'/>
<path d="M10.6842 11.7018C10.6842 11.1398 11.1398 10.6842 11.7018 10.6842H12.7193C13.2813 10.6842 13.7368 11.1398 13.7368 11.7018V12.7193C13.7368 13.2813 13.2813 13.7368 12.7193 13.7368H11.7018C11.1398 13.7368 10.6842 13.2813 10.6842 12.7193V11.7018Z" fill='currentColor'/>
<path d="M10.6842 23.9123C10.6842 23.3503 11.1398 22.8947 11.7018 22.8947H12.7193C13.2813 22.8947 13.7368 23.3503 13.7368 23.9123V24.9298C13.7368 25.4918 13.2813 25.9474 12.7193 25.9474H11.7018C11.1398 25.9474 10.6842 25.4918 10.6842 24.9298V23.9123Z" fill='currentColor'/>
</svg>
