<svg viewBox="0 0 31 30" fill="none" xmlns="http://www.w3.org/2000/svg">
<path d="M31 0L15.4052 3.8987V21.3928C13.9365 20.6281 11.6487 20.818 9.55337 22.0277C6.75629 23.6426 5.36157 26.4634 6.43816 28.328C7.51476 30.1928 10.655 30.3953 13.4521 28.7804C15.6528 27.5098 16.9854 25.4927 16.9293 23.7821H16.9647V9.35689L29.4405 6.23793V17.4941C27.9718 16.7294 25.684 16.9193 23.5887 18.129C20.7916 19.7439 19.3969 22.5647 20.4735 24.4293C21.5501 26.2941 24.6903 26.4966 27.4874 24.8817C29.6882 23.6111 31.0208 21.594 30.9646 19.8834H31V0Z" fill="currentColor"/>
<path d="M7.54523 4.52714C7.54523 3.69372 6.86961 3.01809 6.03619 3.01809C5.20276 3.01809 4.52714 3.69372 4.52714 4.52714V7.54523H1.50905C0.675623 7.54523 0 8.22085 0 9.05428C0 9.8877 0.675623 10.5633 1.50905 10.5633H4.52714V13.5814C4.52714 14.4148 5.20276 15.0905 6.03618 15.0905C6.86961 15.0905 7.54523 14.4148 7.54523 13.5814V10.5633H10.5633C11.3967 10.5633 12.0724 9.8877 12.0724 9.05428C12.0724 8.22085 11.3967 7.54523 10.5633 7.54523H7.54523V4.52714Z" fill='currentColor'/>
</svg>
