<svg viewBox="0 0 26 30" fill="none" xmlns="http://www.w3.org/2000/svg">
<path d="M25.1142 21.9051C24.0504 21.5805 23.095 20.8233 22.2656 19.6334C21.4363 18.4435 21.0216 17.0913 21.0216 15.613C21.0216 14.2428 21.4183 12.9988 22.1935 11.881C22.6262 11.25 23.3113 10.5469 24.2488 9.75363C23.6358 8.99635 23.0048 8.38344 22.3737 7.95072C21.256 7.17548 19.9759 6.77884 18.5336 6.77884C17.6502 6.77884 16.6045 6.99519 15.4147 7.39183C14.2247 7.80649 13.3594 8.00481 12.8365 8.00481C12.4219 8.00481 11.5925 7.82452 10.3486 7.46394C9.08653 7.10336 8.04086 6.92308 7.15745 6.92308C5.08413 6.92308 3.38942 7.78846 2.03726 9.51923C0.685096 11.268 0 13.5036 0 16.262C0 19.2188 0.901444 22.2296 2.65024 25.3305C4.4351 28.4315 6.21995 30 8.07692 30C8.67189 30 9.46513 29.8017 10.4567 29.387C11.4303 28.9904 12.2957 28.792 13.0168 28.792C13.756 28.792 14.6755 28.9724 15.7392 29.369C16.8209 29.7476 17.6502 29.9459 18.2632 29.9459C19.7957 29.9459 21.3461 28.774 22.8966 26.4122C23.9423 24.8438 24.6634 23.3293 25.1142 21.9051ZM18.3353 0.757216C18.3353 0.631012 18.3173 0.522841 18.3173 0.396635C18.2992 0.288463 18.2632 0.16226 18.2271 0C16.1358 0.486776 14.6214 1.3702 13.72 2.66827C12.8185 3.96635 12.3498 5.51683 12.3137 7.30168C13.161 7.22957 13.774 7.1214 14.1887 6.99519C14.8377 6.77884 15.4868 6.34616 16.1358 5.69711C16.893 4.9399 17.4519 4.11058 17.8125 3.20913C18.155 2.32572 18.3353 1.49639 18.3353 0.757216Z" fill='currentColor'/>
</svg>
