<svg viewBox="0 0 23 36" fill="none" xmlns="http://www.w3.org/2000/svg">
<path d="M17.6851 34.7159L16.1539 29.1434C16.1539 27.7343 15.0692 26.6454 13.7293 26.6454H5.94532C4.60545 26.6454 3.52079 27.7984 3.52079 29.1434L2.05331 34.7159C2.05331 36.1251 3.20177 35.997 4.54164 35.997H15.1968C16.6005 35.997 17.6851 36.1251 17.6851 34.7159ZM10.0925 34.0114C8.88028 34.0114 7.92322 33.0506 7.92322 31.8336C7.92322 30.6166 8.88028 29.6559 10.0925 29.6559C11.3048 29.6559 12.2619 30.6166 12.2619 31.8336C12.3257 32.9865 11.3048 34.0114 10.0925 34.0114Z" fill='currentColor'/>
<path d="M17.7373 15.8207H21.6931C22.2036 15.8207 22.6502 15.3724 22.6502 14.86V8.5829C22.6502 8.07049 22.2036 7.62213 21.6931 7.62213H18.6306L18.822 5.70059H1.27605L3.38156 22.5461C3.38156 23.9553 4.40242 25.3004 5.61468 25.3004H14.4834C15.6956 25.3004 16.7165 23.9553 16.7165 22.5461L17.7373 15.8207ZM18.4392 9.54368H20.7361V13.9632H17.9287L18.4392 9.54368Z" fill='currentColor'/>
<path d="M1.27607 4.48361H18.822C19.5238 4.48361 20.0981 3.90714 20.0981 3.20258C20.0981 2.49801 19.5238 1.92155 18.822 1.92155H13.6539C13.7815 1.72939 13.8453 1.53724 13.8453 1.28103C13.8453 0.576464 13.2711 0 12.5693 0H7.5288C6.82696 0 6.25273 0.576464 6.25273 1.28103C6.25273 1.53724 6.31654 1.72939 6.44414 1.92155H1.27607C0.574231 1.92155 0 2.49801 0 3.20258C0 3.90714 0.574231 4.48361 1.27607 4.48361Z" fill='currentColor'/>
</svg>
