<svg viewBox="0 0 15 24" fill="none" xmlns="http://www.w3.org/2000/svg">
<path d="M6 21C6 22.65 4.65 24 3 24C1.35 24 0 22.65 0 21C0 19.35 1.35 18 3 18C4.65 18 6 19.35 6 21ZM3 9C1.35 9 0 10.35 0 12C0 13.65 1.35 15 3 15C4.65 15 6 13.65 6 12C6 10.35 4.65 9 3 9ZM3 0C1.35 0 0 1.35 0 3C0 4.65 1.35 6 3 6C4.65 6 6 4.65 6 3C6 1.35 4.65 0 3 0ZM12 6C13.65 6 15 4.65 15 3C15 1.35 13.65 0 12 0C10.35 0 9 1.35 9 3C9 4.65 10.35 6 12 6ZM12 9C10.35 9 9 10.35 9 12C9 13.65 10.35 15 12 15C13.65 15 15 13.65 15 12C15 10.35 13.65 9 12 9ZM12 18C10.35 18 9 19.35 9 21C9 22.65 10.35 24 12 24C13.65 24 15 22.65 15 21C15 19.35 13.65 18 12 18Z" fill='currentColor'/>
</svg>
