<svg viewBox="0 0 32 36" fill="none" xmlns="http://www.w3.org/2000/svg">
<path fill-rule="evenodd" clip-rule="evenodd" d="M2.50206 19.1335C2.50206 11.6788 8.54529 5.63554 16 5.63554V3.13348C7.16344 3.13348 0 10.2969 0 19.1335C0 27.97 7.16344 35.1335 16 35.1335C24.8365 35.1335 32 27.97 32 19.1335C32 18.4426 31.4399 17.8825 30.749 17.8825C30.058 17.8825 29.4979 18.4426 29.4979 19.1335C29.4979 26.5882 23.4547 32.6314 16 32.6314C8.54529 32.6314 2.50206 26.5882 2.50206 19.1335Z" fill='currentColor'/>
<path d="M22.7023 4.80794C23.0139 4.61166 23.0139 4.15736 22.7023 3.96109L16.5367 0.0777917C16.2035 -0.132091 15.7696 0.107395 15.7696 0.501216V8.2678C15.7696 8.66163 16.2035 8.90111 16.5367 8.69123L22.7023 4.80794Z" fill='currentColor'/>
<path d="M29.1549 4.80794C29.4666 4.61166 29.4666 4.15736 29.1549 3.96109L22.9894 0.0777917C22.6561 -0.132091 22.2223 0.107395 22.2223 0.501216V8.2678C22.2223 8.66163 22.6561 8.90111 22.9894 8.69123L29.1549 4.80794Z" fill='currentColor'/>
<path d="M12.3056 24.6643H10.5628V16.2456L7.99182 17.1242V15.6479L12.0824 14.1427H12.3056V24.6643Z" fill='currentColor'/>
<path d="M22.784 20.2497C22.784 21.7573 22.5007 22.8951 21.9342 23.6633C21.3725 24.4267 20.5155 24.8084 19.3632 24.8084C18.2302 24.8084 17.3756 24.4363 16.7994 23.6921C16.2281 22.9431 15.9352 21.8365 15.9208 20.3722V18.5573C15.9208 17.0498 16.2017 15.9191 16.7634 15.1654C17.33 14.4116 18.1917 14.0347 19.3488 14.0347C20.4963 14.0347 21.3509 14.402 21.9126 15.1366C22.4791 15.8711 22.7696 16.9706 22.784 18.4349V20.2497ZM21.034 18.2909C21.034 17.3067 20.8996 16.5865 20.6307 16.1304C20.3618 15.6695 19.9345 15.439 19.3488 15.439C18.7775 15.439 18.3574 15.6575 18.0885 16.0944C17.8197 16.5265 17.678 17.2034 17.6636 18.1252V20.5018C17.6636 21.4812 17.8005 22.211 18.0741 22.6911C18.3478 23.1712 18.7775 23.4113 19.3632 23.4113C19.9249 23.4113 20.3402 23.1904 20.6091 22.7487C20.878 22.3022 21.0196 21.606 21.034 20.6602V18.2909Z" fill='currentColor'/>
</svg>
