<svg viewBox="0 0 29 29" fill="none" xmlns="http://www.w3.org/2000/svg">
<path fill-rule="evenodd" clip-rule="evenodd" d="M28 16.6331C28.5523 16.6331 29 16.1854 29 15.6331V13.3798C29 12.8275 28.5523 12.3798 28 12.3798H26.1522C25.6835 12.3798 25.2824 12.0527 25.1475 11.6038C24.8862 10.7345 24.5179 9.90109 24.051 9.12269C23.8003 8.70471 23.8413 8.16417 24.1857 7.81923L25.5475 6.45503C25.9372 6.06462 25.9372 5.43233 25.5474 5.04196L23.9563 3.44848C23.5653 3.0569 22.9306 3.05731 22.5401 3.44938L21.0822 4.91322C20.7502 5.24651 20.2331 5.29892 19.8192 5.07529C19.061 4.66553 18.2568 4.34697 17.4236 4.12625C16.9575 4.00278 16.6119 3.59409 16.6119 3.11191V0.999999C16.6119 0.447715 16.1642 0 15.6119 0H13.3558C12.8035 0 12.3558 0.447715 12.3558 1V3.1702C12.3558 3.64358 12.0223 4.04735 11.5674 4.17845C10.7598 4.41122 9.98173 4.73648 9.24882 5.14775C8.83377 5.38064 8.30896 5.33257 7.97231 4.99615L6.43408 3.45895C6.04331 3.06844 5.40993 3.06878 5.01958 3.45971L3.42765 5.054C3.03752 5.44469 3.03786 6.07764 3.4284 6.46792L4.93903 7.97754C5.27962 8.31791 5.32482 8.85035 5.08361 9.26709C4.65606 10.0058 4.31633 10.7919 4.07133 11.6094C3.9367 12.0587 3.53541 12.3862 3.0664 12.3862H1C0.447716 12.3862 0 12.8339 0 13.3862V15.6396C0 16.1918 0.447715 16.6396 1 16.6396H2.94449C3.43059 16.6396 3.84144 16.9906 3.96132 17.4617C4.18393 18.3364 4.51386 19.1803 4.94364 19.9742C5.16735 20.3875 5.11554 20.9041 4.78315 21.2363L3.48001 22.5385C3.08947 22.9288 3.08913 23.5618 3.47925 23.9525L5.07028 25.5459C5.46098 25.9371 6.09506 25.9371 6.48568 25.5457L7.7085 24.3206C8.0534 23.975 8.59499 23.9335 9.01361 24.1847C9.82747 24.6731 10.7014 25.0539 11.6135 25.3174C12.068 25.4486 12.4009 25.8522 12.4009 26.3252V28C12.4009 28.5523 12.8486 29 13.4009 29H15.6571C16.2094 29 16.6571 28.5523 16.6571 28V26.3905C16.6571 25.9085 17.0025 25.4998 17.4686 25.3764C18.4088 25.1274 19.3117 24.7545 20.1534 24.2674C20.5699 24.0265 21.1018 24.0715 21.4422 24.4117L22.5852 25.554C22.976 25.9445 23.6094 25.9441 23.9997 25.5532L25.5917 23.9589C25.9818 23.5682 25.9815 22.9353 25.5909 22.545L24.4133 21.3681C24.0795 21.0346 24.0288 20.5154 24.2553 20.1016C24.7104 19.2702 25.0556 18.3834 25.2824 17.4635C25.3994 16.9885 25.8119 16.6331 26.3011 16.6331H28ZM14.8128 23.2065C13.1547 23.2065 11.5338 22.7151 10.1552 21.7945C8.77656 20.874 7.70204 19.5655 7.06753 18.0347C6.43301 16.5039 6.26701 14.8194 6.59048 13.1943C6.91396 11.5691 7.71238 10.0763 8.88482 8.90469C10.0573 7.73304 11.551 6.93513 13.1772 6.61187C14.8034 6.28861 16.4891 6.45452 18.021 7.08861C19.5528 7.72271 20.8621 8.79651 21.7833 10.1742C22.7044 11.5519 23.1961 13.1717 23.1961 14.8287C23.1961 15.9289 22.9793 17.0183 22.558 18.0347C22.1367 19.0511 21.5192 19.9747 20.7407 20.7527C19.9622 21.5306 19.0381 22.1477 18.021 22.5687C17.0038 22.9898 15.9137 23.2065 14.8128 23.2065Z" fill='currentColor'/>
</svg>
