<svg viewBox="0 0 27 30" fill="none" xmlns="http://www.w3.org/2000/svg">
<path d="M8.51458 22.0739L7.34627 20.1783L4.87938 20.6215L8.12372 14.8676H1.79736V30H12.5769V14.8676L8.51458 22.0739Z" fill='currentColor'/>
<path d="M26.2569 7.6463H19.0987C19.5173 7.43058 19.8911 7.20525 20.2221 6.96604C21.4951 6.05404 22.1711 4.89855 22.1689 3.7516C22.1689 2.81076 21.7236 1.46305 21.0765 0.901324C20.4282 0.333191 19.5686 0 18.6512 0C17.6709 0 16.7599 0.336395 15.9793 0.859675C14.8056 1.64566 13.8872 3.34793 13.2326 4.64652C13.1995 4.71166 13.1664 4.77467 13.1343 4.83768C12.8951 4.33682 12.6153 3.33405 12.2982 2.87698C11.7428 2.08458 11.0754 1.38402 10.2915 0.859675C9.51303 0.336395 8.60316 0 7.62388 0C6.6478 0.00320376 5.75395 0.412217 5.08543 1.04336C4.42012 1.66809 3.95451 3.07454 3.95023 4.07945C3.94596 4.66574 4.11683 5.27979 4.47031 5.83832C4.91457 6.5378 5.61833 7.14759 6.59013 7.6463H0L0.0149509 13.664H12.39V7.6463H13.8979V13.664H26.2751L26.2569 7.6463ZM7.0173 5.76463C6.52072 5.45066 6.21529 5.13563 6.03588 4.85263C5.86181 4.57176 5.80094 4.07838 5.80094 3.83597C5.79667 3.43123 5.99851 2.72106 6.35733 2.38787C6.7076 2.05361 7.1839 1.8475 7.61106 1.8475H7.62388C8.17386 1.85177 8.7185 2.03545 9.26741 2.39748C10.0844 2.93678 10.8543 4.40303 11.3894 5.47736C11.6692 6.02413 11.8827 6.59547 12.0269 7.15399C9.54827 6.89769 7.94639 6.35092 7.0173 5.76463ZM15.4891 4.45643C15.9355 3.81674 16.462 2.76164 17.0077 2.39748C17.5502 2.03545 18.1012 1.85177 18.6512 1.8475H18.6566C19.1147 1.8475 19.5557 2.02691 19.8558 2.29282C20.157 2.56301 20.3182 3.05745 20.3182 3.4056C20.3118 3.81674 20.0993 4.76292 19.1393 5.46454C18.2283 6.12879 16.6467 6.80906 14.2151 7.28535C14.4447 6.32102 14.8943 5.30009 15.4891 4.45643Z" fill='currentColor'/>
<path d="M21.4087 20.597L18.9429 20.1783L17.7788 22.0963L13.7688 14.9648V30H24.4939V14.8676H18.1676L21.4087 20.597Z" fill='currentColor'/>
</svg>
