<svg viewBox="0 0 29 25" fill="none" xmlns="http://www.w3.org/2000/svg">
<path fill-rule="evenodd" clip-rule="evenodd" d="M14.5 4.04419C15.028 3.37957 15.6795 2.65949 16.4324 2.0159C17.8148 0.834283 19.7339 -0.251189 21.9617 0.0512365C26.3378 0.642332 29 4.22687 29 8.69492C29 11.7461 26.8515 18.7218 15.0828 24.7888C14.7171 24.9774 14.2829 24.9774 13.9172 24.7888C2.14851 18.7218 0 11.7461 0 8.69492C0 4.2268 2.66227 0.642224 7.03845 0.05121M14.5 4.04419C13.972 3.37957 13.3205 2.65949 12.5676 2.0159C11.1853 0.83437 9.26607 -0.250989 7.03845 0.05121M10.9147 3.94958C9.76346 2.96553 8.55807 2.412 7.38015 2.57202L7.37913 2.57215C4.46443 2.9657 2.54386 5.28766 2.54386 8.69492C2.54386 10.5327 3.88784 16.5629 14.5 22.2222C25.1122 16.5629 26.4561 10.5327 26.4561 8.69492C26.4561 5.28766 24.5356 2.9657 21.6209 2.57215L21.6198 2.57202C20.4419 2.412 19.2365 2.96553 18.0853 3.94958C16.9528 4.9177 16.0603 6.14763 15.5744 6.91456C15.3412 7.28267 14.9358 7.50576 14.5 7.50576C14.0642 7.50576 13.6588 7.28267 13.4256 6.91456C12.9397 6.14763 12.0472 4.9177 10.9147 3.94958Z" fill='currentColor'/>
</svg>
