<svg viewBox="0 0 34 30" fill="none" xmlns="http://www.w3.org/2000/svg">
<path fill-rule="evenodd" clip-rule="evenodd" d="M12.6113 0.353041C13.0483 -0.11768 13.7567 -0.11768 14.1937 0.353041L19.8333 6.42857H10.0699C7.99272 6.42857 6.00057 7.31752 4.53176 8.89986C3.06294 10.4822 2.23776 12.6283 2.23776 14.8661C2.23776 17.1038 3.06294 19.2499 4.53176 20.8323C6.00057 22.4146 7.99272 23.3036 10.0699 23.3036C10.6879 23.3036 11.1888 23.8432 11.1888 24.5089C11.1888 25.1746 10.6879 25.7143 10.0699 25.7143C7.39923 25.7143 4.8379 24.5714 2.94942 22.5369C1.06094 20.5025 -8.89208e-08 17.7432 0 14.8661C8.89208e-08 11.9889 1.06094 9.22966 2.94942 7.19523C4.8379 5.16079 7.39923 4.01786 10.0699 4.01786H14.4309L12.6113 2.05767C12.1744 1.58695 12.1744 0.823762 12.6113 0.353041Z" fill='currentColor'/>
<path fill-rule="evenodd" clip-rule="evenodd" d="M21.3887 29.647C20.9517 30.1177 20.2433 30.1177 19.8063 29.647L14.1667 23.5714L23.9301 23.5714C26.0073 23.5714 27.9994 22.6825 29.4682 21.1001C30.9371 19.5178 31.7622 17.3717 31.7622 15.1339C31.7622 12.8962 30.9371 10.7501 29.4682 9.16772C27.9994 7.58538 26.0073 6.69643 23.9301 6.69643C23.3121 6.69643 22.8112 6.15677 22.8112 5.49107C22.8112 4.82537 23.3121 4.28572 23.9301 4.28572C26.6008 4.28572 29.1621 5.42865 31.0506 7.46309C32.9391 9.49752 34 12.2568 34 15.1339C34 18.0111 32.9391 20.7703 31.0506 22.8048C29.1621 24.8392 26.6008 25.9821 23.9301 25.9821L19.5691 25.9821L21.3887 27.9423C21.8256 28.413 21.8256 29.1762 21.3887 29.647Z" fill='currentColor'/>
</svg>
