<svg viewBox="0 0 30 31" fill="none" xmlns="http://www.w3.org/2000/svg">
<path fill-rule="evenodd" clip-rule="evenodd" d="M13.1868 3C7.55835 3 3 7.55421 3 13.1667C3 18.7791 7.55835 23.3333 13.1868 23.3333C18.8153 23.3333 23.3736 18.7791 23.3736 13.1667C23.3736 7.55421 18.8153 3 13.1868 3ZM0 13.1667C0 5.89248 5.90638 0 13.1868 0C20.4673 0 26.3736 5.89248 26.3736 13.1667C26.3736 16.5297 25.1112 19.5974 23.0341 21.9241L29.5597 28.4384C30.146 29.0237 30.1469 29.9735 29.5616 30.5597C28.9763 31.146 28.0265 31.1469 27.4403 30.5616L20.8292 23.9619C20.8167 23.9494 20.8044 23.9368 20.7925 23.9239C18.643 25.4417 16.0189 26.3333 13.1868 26.3333C5.90638 26.3333 0 20.4409 0 13.1667Z" fill='currentColor'/>
</svg>
