<svg viewBox="0 0 30 30" fill="none" xmlns="http://www.w3.org/2000/svg">
<path d="M20.25 13.5C20.875 13.5 21.4062 13.2813 21.8437 12.8438C22.2812 12.4063 22.5 11.875 22.5 11.25C22.5 10.625 22.2812 10.0937 21.8437 9.65625C21.4062 9.21875 20.875 9 20.25 9C19.625 9 19.0937 9.21875 18.6562 9.65625C18.2187 10.0937 18 10.625 18 11.25C18 11.875 18.2187 12.4063 18.6562 12.8438C19.0937 13.2813 19.625 13.5 20.25 13.5ZM9.75 13.5C10.375 13.5 10.9062 13.2813 11.3437 12.8438C11.7813 12.4063 12 11.875 12 11.25C12 10.625 11.7813 10.0937 11.3437 9.65625C10.9062 9.21875 10.375 9 9.75 9C9.125 9 8.59375 9.21875 8.15625 9.65625C7.71875 10.0937 7.5 10.625 7.5 11.25C7.5 11.875 7.71875 12.4063 8.15625 12.8438C8.59375 13.2813 9.125 13.5 9.75 13.5ZM15 23.25C16.7 23.25 18.2438 22.7687 19.6312 21.8063C21.0187 20.8437 22.025 19.575 22.65 18H7.35C7.975 19.575 8.98125 20.8437 10.3687 21.8063C11.7562 22.7687 13.3 23.25 15 23.25ZM15 30C12.925 30 10.975 29.6062 9.15 28.8187C7.325 28.0313 5.7375 26.9625 4.3875 25.6125C3.0375 24.2625 1.96875 22.675 1.18125 20.85C0.39375 19.025 0 17.075 0 15C0 12.925 0.39375 10.975 1.18125 9.15C1.96875 7.325 3.0375 5.7375 4.3875 4.3875C5.7375 3.0375 7.325 1.96875 9.15 1.18125C10.975 0.39375 12.925 0 15 0C17.075 0 19.025 0.39375 20.85 1.18125C22.675 1.96875 24.2625 3.0375 25.6125 4.3875C26.9625 5.7375 28.0313 7.325 28.8187 9.15C29.6062 10.975 30 12.925 30 15C30 17.075 29.6062 19.025 28.8187 20.85C28.0313 22.675 26.9625 24.2625 25.6125 25.6125C24.2625 26.9625 22.675 28.0313 20.85 28.8187C19.025 29.6062 17.075 30 15 30ZM15 27C18.35 27 21.1875 25.8375 23.5125 23.5125C25.8375 21.1875 27 18.35 27 15C27 11.65 25.8375 8.8125 23.5125 6.4875C21.1875 4.1625 18.35 3 15 3C11.65 3 8.8125 4.1625 6.4875 6.4875C4.1625 8.8125 3 11.65 3 15C3 18.35 4.1625 21.1875 6.4875 23.5125C8.8125 25.8375 11.65 27 15 27Z" fill='currentColor'/>
</svg>
