<svg viewBox="0 0 19 29" fill="none" xmlns="http://www.w3.org/2000/svg">
<path fill-rule="evenodd" clip-rule="evenodd" d="M8.51289 0.37254C9.00961 -0.12418 9.81495 -0.12418 10.3117 0.37254L18.452 8.51289C18.9487 9.00961 18.9487 9.81495 18.452 10.3117C17.9553 10.8084 17.15 10.8084 16.6532 10.3117L9.41228 3.07071L2.17132 10.3117C1.6746 10.8084 0.869259 10.8084 0.37254 10.3117C-0.12418 9.81495 -0.12418 9.00961 0.37254 8.51289L8.51289 0.37254ZM0.37254 18.6883C0.869259 18.1916 1.6746 18.1916 2.17132 18.6883L9.41228 25.9293L16.6532 18.6883C17.15 18.1916 17.9553 18.1916 18.452 18.6883C18.9487 19.185 18.9487 19.9904 18.452 20.4871L10.3117 28.6275C10.0731 28.866 9.74962 29 9.41228 29C9.07494 29 8.75142 28.866 8.51289 28.6275L0.37254 20.4871C-0.12418 19.9904 -0.12418 19.185 0.37254 18.6883Z" fill='currentColor'/>
</svg>
