<svg viewBox="0 0 30 26" fill="none" xmlns="http://www.w3.org/2000/svg">
<path d="M0 0V1.15385V20.7692C0 23.319 2.06561 25.3846 4.61538 25.3846H25.3846C27.9344 25.3846 30 23.319 30 20.7692V9.23077V8.07692H28.8462H23.0769V1.15385V0H21.9231H1.15385H0ZM2.30769 2.30769H20.7692V8.07692V9.23077V20.7692C20.7692 21.6117 21.0243 22.3972 21.4183 23.0769H4.61538C3.24208 23.0769 2.30769 22.1425 2.30769 20.7692V2.30769ZM4.61538 4.61538V5.76923V9.23077V10.3846H5.76923H17.3077H18.4615V9.23077V5.76923V4.61538H17.3077H5.76923H4.61538ZM23.0769 10.3846H27.6923V20.7692C27.6923 22.1425 26.7579 23.0769 25.3846 23.0769C24.0113 23.0769 23.0769 22.1425 23.0769 20.7692V10.3846ZM4.61538 11.5385V13.8462H10.3846V11.5385H4.61538ZM12.6923 11.5385V13.8462H18.4615V11.5385H12.6923ZM4.61538 15V17.3077H10.3846V15H4.61538ZM12.6923 15V17.3077H18.4615V15H12.6923ZM4.61538 18.4615V20.7692H10.3846V18.4615H4.61538ZM12.6923 18.4615V20.7692H18.4615V18.4615H12.6923Z" fill='currentColor'/>
</svg>
