<svg viewBox="0 0 25 30" fill="none" xmlns="http://www.w3.org/2000/svg">
<path d="M12.3077 30C14 30 15.3846 28.6154 15.3846 26.9231H9.23077C9.23077 28.6154 10.6154 30 12.3077 30ZM21.5385 20.7692V13.0769C21.5385 8.35385 19.0308 4.4 14.6154 3.35385V2.30769C14.6154 1.03077 13.5846 0 12.3077 0C11.0308 0 10 1.03077 10 2.30769V3.35385C5.6 4.4 3.07692 8.33846 3.07692 13.0769V20.7692L0 23.8462V25.3846H24.6154V23.8462L21.5385 20.7692ZM18.4615 22.3077H6.15385V13.0769C6.15385 9.26154 8.47692 6.15385 12.3077 6.15385C16.1385 6.15385 18.4615 9.26154 18.4615 13.0769V22.3077Z" fill='currentColor'/>
</svg>
