<svg viewBox="0 0 30 30" fill="none" xmlns="http://www.w3.org/2000/svg">
<path d="M3.33333 30C2.41667 30 1.63194 29.6736 0.979167 29.0208C0.326389 28.3681 0 27.5833 0 26.6667V3.33333C0 2.41667 0.326389 1.63194 0.979167 0.979167C1.63194 0.326389 2.41667 0 3.33333 0H13.3333C13.8056 0 14.2014 0.159722 14.5208 0.479167C14.8403 0.798611 15 1.19444 15 1.66667C15 2.13889 14.8403 2.53472 14.5208 2.85417C14.2014 3.17361 13.8056 3.33333 13.3333 3.33333H3.33333V26.6667H26.6667V16.6667C26.6667 16.1944 26.8264 15.7986 27.1458 15.4792C27.4653 15.1597 27.8611 15 28.3333 15C28.8056 15 29.2014 15.1597 29.5208 15.4792C29.8403 15.7986 30 16.1944 30 16.6667V26.6667C30 27.5833 29.6736 28.3681 29.0208 29.0208C28.3681 29.6736 27.5833 30 26.6667 30H3.33333ZM26.6667 5.66667L12.3333 20C12.0278 20.3056 11.6389 20.4583 11.1667 20.4583C10.6944 20.4583 10.3056 20.3056 10 20C9.69444 19.6944 9.54167 19.3056 9.54167 18.8333C9.54167 18.3611 9.69444 17.9722 10 17.6667L24.3333 3.33333H20C19.5278 3.33333 19.1319 3.17361 18.8125 2.85417C18.4931 2.53472 18.3333 2.13889 18.3333 1.66667C18.3333 1.19444 18.4931 0.798611 18.8125 0.479167C19.1319 0.159722 19.5278 0 20 0H28.3333C28.8056 0 29.2014 0.159722 29.5208 0.479167C29.8403 0.798611 30 1.19444 30 1.66667V10C30 10.4722 29.8403 10.8681 29.5208 11.1875C29.2014 11.5069 28.8056 11.6667 28.3333 11.6667C27.8611 11.6667 27.4653 11.5069 27.1458 11.1875C26.8264 10.8681 26.6667 10.4722 26.6667 10V5.66667Z" fill='currentColor'/>
</svg>
