<svg viewBox="0 0 30 21" fill="none" xmlns="http://www.w3.org/2000/svg">
<path d="M15 0C8.18182 0 2.35909 4.24091 0 10.2273C2.35909 16.2136 8.18182 20.4545 15 20.4545C21.8182 20.4545 27.6409 16.2136 30 10.2273C27.6409 4.24091 21.8182 0 15 0ZM15 17.0455C11.2364 17.0455 8.18182 13.9909 8.18182 10.2273C8.18182 6.46364 11.2364 3.40909 15 3.40909C18.7636 3.40909 21.8182 6.46364 21.8182 10.2273C21.8182 13.9909 18.7636 17.0455 15 17.0455ZM15 6.13636C12.7364 6.13636 10.9091 7.96364 10.9091 10.2273C10.9091 12.4909 12.7364 14.3182 15 14.3182C17.2636 14.3182 19.0909 12.4909 19.0909 10.2273C19.0909 7.96364 17.2636 6.13636 15 6.13636Z" fill='currentColor'/>
</svg>
