<svg viewBox="0 0 31 31" fill="none" xmlns="http://www.w3.org/2000/svg">
<path fill-rule="evenodd" clip-rule="evenodd" d="M16.9117 22.1066C16.9117 22.3872 17.1392 22.6148 17.4199 22.6148H20.0738C20.3544 22.6148 20.582 22.3872 20.582 22.1066V8.89344C20.582 8.61277 20.3544 8.38525 20.0738 8.38525H17.4199C17.1392 8.38525 16.9117 8.61277 16.9117 8.89344V22.1066ZM10.418 22.1066C10.418 22.3872 10.6456 22.6148 10.9262 22.6148H13.5801C13.8608 22.6148 14.0883 22.3872 14.0883 22.1066V8.89344C14.0883 8.61277 13.8608 8.38525 13.5801 8.38525H10.9262C10.6456 8.38525 10.418 8.61277 10.418 8.89344V22.1066Z" fill='currentColor'/>
<path fill-rule="evenodd" clip-rule="evenodd" d="M0 15.5C0 6.94364 6.94364 0 15.5 0C24.0564 0 31 6.94364 31 15.5C31 24.0564 24.0564 31 15.5 31C6.94364 31 0 24.0564 0 15.5ZM15.5 2.54098C8.34699 2.54098 2.54098 8.34699 2.54098 15.5C2.54098 22.653 8.34699 28.459 15.5 28.459C22.653 28.459 28.459 22.653 28.459 15.5C28.459 8.34699 22.653 2.54098 15.5 2.54098Z" fill='currentColor'/>
</svg>
