<svg viewBox="0 0 30 30" fill="none" xmlns="http://www.w3.org/2000/svg">
<path d="M13.875 30V17.775C13.325 17.55 12.875 17.1875 12.525 16.6875C12.175 16.1875 12 15.625 12 15C12 14.175 12.2938 13.4688 12.8813 12.8813C13.4688 12.2938 14.175 12 15 12C15.825 12 16.5312 12.2938 17.1188 12.8813C17.7063 13.4688 18 14.175 18 15C18 15.625 17.825 16.1875 17.475 16.6875C17.125 17.1875 16.675 17.55 16.125 17.775V30H13.875ZM4.65 25.875C3.225 24.5 2.09375 22.8813 1.25625 21.0188C0.41875 19.1562 0 17.15 0 15C0 12.925 0.39375 10.975 1.18125 9.15C1.96875 7.325 3.0375 5.7375 4.3875 4.3875C5.7375 3.0375 7.325 1.96875 9.15 1.18125C10.975 0.39375 12.925 0 15 0C17.075 0 19.025 0.39375 20.85 1.18125C22.675 1.96875 24.2625 3.0375 25.6125 4.3875C26.9625 5.7375 28.0313 7.325 28.8188 9.15C29.6063 10.975 30 12.925 30 15C30 17.15 29.5813 19.1562 28.7438 21.0188C27.9063 22.8813 26.775 24.5 25.35 25.875L23.7375 24.2625C24.9875 23.0875 25.9688 21.7125 26.6813 20.1375C27.3938 18.5625 27.75 16.85 27.75 15C27.75 11.45 26.5125 8.4375 24.0375 5.9625C21.5625 3.4875 18.55 2.25 15 2.25C11.45 2.25 8.4375 3.4875 5.9625 5.9625C3.4875 8.4375 2.25 11.45 2.25 15C2.25 16.85 2.60625 18.5625 3.31875 20.1375C4.03125 21.7125 5.0125 23.0875 6.2625 24.2625L4.65 25.875ZM8.8875 21.6375C8.0125 20.8125 7.3125 19.8313 6.7875 18.6938C6.2625 17.5563 6 16.325 6 15C6 12.5 6.875 10.375 8.625 8.625C10.375 6.875 12.5 6 15 6C17.5 6 19.625 6.875 21.375 8.625C23.125 10.375 24 12.5 24 15C24 16.325 23.7375 17.5563 23.2125 18.6938C22.6875 19.8313 21.9875 20.8125 21.1125 21.6375L19.5 20.025C20.2 19.4 20.75 18.6625 21.15 17.8125C21.55 16.9625 21.75 16.025 21.75 15C21.75 13.125 21.0938 11.5312 19.7812 10.2188C18.4688 8.90625 16.875 8.25 15 8.25C13.125 8.25 11.5312 8.90625 10.2188 10.2188C8.90625 11.5312 8.25 13.125 8.25 15C8.25 16.025 8.45 16.9625 8.85 17.8125C9.25 18.6625 9.8 19.4 10.5 20.025L8.8875 21.6375Z" fill='currentColor'/>
</svg>
