<svg viewBox="0 0 29 35" fill="none" xmlns="http://www.w3.org/2000/svg">
<path fill-rule="evenodd" clip-rule="evenodd" d="M11.1679 15.3635C8.38941 14.0968 6.4581 11.295 6.4581 8.04207C6.4581 3.60056 10.0587 0 14.5002 0C18.9417 0 22.5422 3.60056 22.5422 8.04207C22.5422 11.295 20.6109 14.0969 17.8323 15.3635C16.8171 15.8263 15.6887 16.0841 14.5002 16.0841C14.5001 16.0841 14.5001 16.0841 14.5 16.0841C13.3115 16.0841 12.1831 15.8263 11.1679 15.3635ZM18.161 17.9452C16.9916 17.7678 15.7648 17.6735 14.5002 17.6734C14.5001 17.6734 14.5001 17.6734 14.5 17.6734C13.2354 17.6734 12.0086 17.7678 10.8393 17.9451C4.60346 18.8907 0 22.1952 0 26.1264C0 30.7948 6.49187 34.5793 14.5 34.5793C22.5081 34.5793 29 30.7948 29 26.1264C29 22.1952 24.3967 18.8908 18.161 17.9452ZM23.4874 29.9324C25.7254 28.6277 26.4869 27.1949 26.4869 26.1264C26.4869 25.0579 25.7254 23.6251 23.4874 22.3204C21.3113 21.0518 18.1394 20.1866 14.5 20.1866C10.8606 20.1866 7.68874 21.0518 5.51265 22.3204C3.27459 23.6251 2.51315 25.0579 2.51315 26.1264C2.51315 27.1949 3.27459 28.6277 5.51265 29.9324C7.68874 31.2009 10.8606 32.0662 14.5 32.0662C18.1394 32.0662 21.3113 31.2009 23.4874 29.9324ZM9.47388 8.04207C9.47388 5.26612 11.7242 3.01578 14.5002 3.01578C17.2761 3.01578 19.5265 5.26612 19.5265 8.04207C19.5265 10.818 17.2761 13.0684 14.5002 13.0684C11.7242 13.0684 9.47388 10.818 9.47388 8.04207Z" fill='currentColor'/>
</svg>
