<svg viewBox="0 0 32 28" fill="none" xmlns="http://www.w3.org/2000/svg">
<path d="M13.5301 2.53048C15.983 1.77587 18.6133 1.82752 21.0346 2.67786C23.456 3.52819 25.541 5.13241 26.9836 7.255C28.4261 9.37759 29.1501 11.9067 29.0493 14.4711C28.9486 17.0355 28.0284 19.5 26.4238 21.5029C24.8192 23.5058 22.6147 24.9415 20.1341 25.5992C17.6534 26.2569 15.0272 26.1021 12.6411 25.1573C12.1276 24.954 11.5465 25.2055 11.3432 25.719C11.1399 26.2325 11.3913 26.8136 11.9048 27.0169C14.6887 28.1191 17.7526 28.2998 20.6466 27.5324C23.5407 26.765 26.1126 25.0901 27.9846 22.7534C29.8567 20.4167 30.9303 17.5414 31.0478 14.5496C31.1653 11.5579 30.3207 8.60719 28.6377 6.13084C26.9548 3.65448 24.5223 1.78289 21.6973 0.790831C18.8724 -0.201226 15.8038 -0.261486 12.942 0.618898C10.0803 1.49928 7.57619 3.27393 5.79734 5.6823C4.01848 8.09068 3.05859 11.0059 3.05859 14L1.00176 14C0.188391 14 -0.284734 14.9194 0.188029 15.5812L3.24484 19.8608C3.64366 20.4191 4.47349 20.4191 4.87231 19.8608L7.92912 15.5812C8.40188 14.9194 7.92876 14 7.11538 14L5.05859 14C5.05859 11.4336 5.88135 8.93487 7.40609 6.87055C8.93082 4.80623 11.0772 3.2851 13.5301 2.53048Z" fill='currentColor'/>
</svg>
