<svg viewBox="0 0 28 34" fill="none" xmlns="http://www.w3.org/2000/svg">
<path fill-rule="evenodd" clip-rule="evenodd" d="M16.3049 3.16705L24.7898 11.652C26.4773 9.27593 26.2562 5.96027 24.1264 3.83049C21.9966 1.70071 18.6809 1.47956 16.3049 3.16705ZM23.3416 13.1002L14.8567 4.61525C13.1692 6.99131 13.3903 10.307 15.5201 12.4367C17.6499 14.5665 20.9656 14.7877 23.3416 13.1002ZM14.0719 2.38228C17.2483 -0.794094 22.3982 -0.794094 25.5746 2.38228C28.751 5.55866 28.751 10.7086 25.5746 13.885C24.1355 15.324 22.2914 16.1111 20.4093 16.2462C19.9867 16.3589 19.2568 16.69 18.2602 17.2648C17.2402 17.8531 16.0249 18.6467 14.7218 19.5796C12.1138 21.4465 9.20218 23.8366 6.856 26.1828C6.66395 26.3748 6.40348 26.4827 6.13189 26.4827C5.8603 26.4827 5.59983 26.3748 5.40779 26.1828L4.31178 25.0868L3.00088 26.3977C1.73047 27.6681 1.73047 29.7287 3.00088 30.9991C4.27128 32.2695 6.33188 32.2695 7.60228 30.9991L17.266 21.3353C19.3363 19.2651 22.6936 19.2651 24.7639 21.3353C26.8341 23.4056 26.8341 26.7629 24.7639 28.8332L20.2836 33.3134C19.8837 33.7133 19.2353 33.7133 18.8354 33.3134C18.4355 32.9135 18.4355 32.2651 18.8354 31.8652L23.3156 27.385C24.5861 26.1145 24.5861 24.054 23.3156 22.7835C22.0452 21.5131 19.9846 21.5131 18.7142 22.7835L9.05049 32.4473C6.98026 34.5175 3.6229 34.5175 1.55267 32.4473C-0.517558 30.3771 -0.517557 27.0197 1.55267 24.9495L2.86357 23.6386L1.77411 22.5491C1.3742 22.1492 1.3742 21.5008 1.77411 21.1009C4.12031 18.7547 6.51121 15.8422 8.37858 13.2338C9.31162 11.9306 10.1053 10.7152 10.6935 9.69537C11.2683 8.69869 11.5987 7.9695 11.7106 7.54832C11.8456 5.66592 12.6327 3.82151 14.0719 2.38228ZM12.2461 11.0961C11.6472 12.1004 10.8956 13.2364 10.0439 14.4261C8.31239 16.8446 6.13913 19.5245 3.93882 21.8174L4.96696 22.8455C4.99179 22.8661 5.01588 22.888 5.03912 22.9112C5.06237 22.9345 5.08427 22.9586 5.10481 22.9834L6.1395 24.0181C8.43226 21.8179 11.1114 19.6454 13.5296 17.9142C14.72 17.0621 15.8565 16.3102 16.8614 15.711C15.8452 15.3144 14.8927 14.7057 14.0719 13.885C13.2513 13.0644 12.6427 12.1121 12.2461 11.0961ZM12.8308 15.1262C13.2307 15.5261 13.2307 16.1745 12.8308 16.5744L11.1247 18.2805C10.7248 18.6804 10.0764 18.6804 9.67649 18.2805C9.27658 17.8806 9.27658 17.2322 9.67649 16.8323L11.3826 15.1262C11.7825 14.7263 12.4309 14.7263 12.8308 15.1262Z" fill='currentColor'/>
</svg>
