<svg viewBox="0 0 30 29" fill="none" xmlns="http://www.w3.org/2000/svg">
<path d="M13.2154 1.0258C14.012 -0.341935 15.988 -0.341934 16.7846 1.02581L20.2647 7.00078C20.5565 7.50181 21.0455 7.85709 21.6122 7.97981L28.3702 9.44322C29.9171 9.77821 30.5277 11.6574 29.4731 12.8377L24.866 17.9939C24.4797 18.4262 24.2929 19.0011 24.3513 19.578L25.0478 26.4574C25.2073 28.0322 23.6087 29.1936 22.1603 28.5553L15.8328 25.767C15.3022 25.5332 14.6978 25.5332 14.1672 25.767L7.83972 28.5553C6.39129 29.1936 4.79274 28.0322 4.95218 26.4574L5.64872 19.578C5.70713 19.0011 5.52035 18.4262 5.13402 17.9939L0.526887 12.8377C-0.527736 11.6574 0.0828579 9.77821 1.62983 9.44322L8.38779 7.97981C8.95447 7.85709 9.44347 7.50181 9.73529 7.00078L13.2154 1.0258Z" fill='currentColor'/>
</svg>
