<svg viewBox="0 0 31 31" fill="none" xmlns="http://www.w3.org/2000/svg">
<path d="M3.09961 1.25H13.9502C14.3998 1.25005 14.8071 1.4068 15.1221 1.66602L15.252 1.7832L29.2012 15.7324C29.5364 16.0676 29.7499 16.5451 29.75 17.0498C29.75 17.5621 29.5475 18.0152 29.2139 18.3398L29.208 18.3457L29.2012 18.3516L18.3516 29.2012L18.3457 29.208L18.3398 29.2139C18.0152 29.5475 17.5621 29.75 17.0498 29.75C16.6002 29.75 16.1929 29.5932 15.8779 29.334L15.748 29.2168L1.79883 15.2676C1.45141 14.9202 1.25005 14.4594 1.25 13.9502V3.09961C1.25021 2.08527 2.08527 1.25021 3.09961 1.25ZM5.4248 1.84961C3.4481 1.84971 1.84971 3.4481 1.84961 5.4248C1.84961 7.4016 3.44804 8.99989 5.4248 9C7.40166 9 9 7.40166 9 5.4248C8.99989 3.44804 7.4016 1.84961 5.4248 1.84961Z" fill='currentColor' stroke="black" stroke-width="2.5"/>
</svg>
