<svg viewBox="0 0 31 31" fill="none" xmlns="http://www.w3.org/2000/svg">
<path d="M6.75 4.5C7.995 4.5 9 5.505 9 6.75C9 7.995 7.995 9 6.75 9C5.505 9 4.5 7.995 4.5 6.75C4.5 5.505 5.505 4.5 6.75 4.5Z" fill='currentColor'/>
<path fill-rule="evenodd" clip-rule="evenodd" d="M14.2002 0C15.5923 5.23776e-05 16.8741 0.559654 17.8008 1.48633L29.501 13.1865C30.4143 14.0999 30.9999 15.3896 31 16.7998C31 18.1833 30.4456 19.4666 29.5 20.3994L29.501 20.4004L20.4004 29.501L20.3994 29.5C19.4666 30.4456 18.1833 31 16.7998 31C15.4077 30.9999 14.1259 30.4403 13.1992 29.5137L1.49902 17.8135C0.566144 16.8805 5.26482e-05 15.6014 0 14.2002V5.09961C0.000212034 2.28921 2.28921 0.000212033 5.09961 0H14.2002ZM5.09961 2.5C3.66992 2.50021 2.50021 3.66992 2.5 5.09961V14.2002L2.51367 14.4648C2.57498 15.0747 2.84587 15.6251 3.2666 16.0459L14.9668 27.7461C15.3763 28.1556 15.9254 28.4252 16.5352 28.4863L16.7998 28.5C17.5147 28.5 18.1648 28.2142 18.6328 27.7334L27.7334 18.6328C28.1542 18.2233 28.4251 17.6743 28.4863 17.0645L28.5 16.7998C28.4999 16.085 28.2012 15.422 27.7334 14.9541L16.0332 3.25391C15.6237 2.84442 15.0746 2.57482 14.4648 2.51367L14.2002 2.5H5.09961Z" fill='currentColor'/>
</svg>
