<svg viewBox="0 0 25 20" fill="none" xmlns="http://www.w3.org/2000/svg">
<path fill-rule="evenodd" clip-rule="evenodd" d="M9.87558 0.46667C11.0366 -0.578227 12.8866 0.245712 12.8866 1.80767V18.0496C12.8866 19.6115 11.0366 20.4354 9.87558 19.3906L5.21242 15.1937H1.80412C0.807732 15.1937 0 14.386 0 13.3896V6.46764C0 5.47125 0.807732 4.66352 1.80412 4.66352H5.21242L9.87558 0.46667ZM10.3093 3.54377L6.71601 6.77771C6.38473 7.07586 5.95482 7.24084 5.50912 7.24084H2.57732V12.6164H5.50912C5.95481 12.6164 6.38473 12.7814 6.71601 13.0795L10.3093 16.3135V3.54377Z" fill='currentColor'/>
<path fill-rule="evenodd" clip-rule="evenodd" d="M17.0545 6.48752C17.4571 6.08492 18.1099 6.08492 18.5125 6.48752L20.8763 8.85133L23.2401 6.48752C23.6427 6.08492 24.2954 6.08492 24.698 6.48752C25.1007 6.89012 25.1007 7.54287 24.698 7.94547L22.3342 10.3093L24.698 12.6731C25.1007 13.0757 25.1007 13.7284 24.698 14.131C24.2954 14.5336 23.6427 14.5336 23.2401 14.131L20.8763 11.7672L18.5125 14.131C18.1099 14.5336 17.4571 14.5336 17.0545 14.131C16.6519 13.7284 16.6519 13.0757 17.0545 12.6731L19.4183 10.3093L17.0545 7.94547C16.6519 7.54287 16.6519 6.89012 17.0545 6.48752Z" fill='currentColor'/>
</svg>
