<svg viewBox="0 0 30 27" fill="none" xmlns="http://www.w3.org/2000/svg">
<path fill-rule="evenodd" clip-rule="evenodd" d="M26.8503 26.7656H3.14966C0.726083 26.7656 -0.784717 24.1374 0.427071 22.0443L12.2774 1.56982C13.4892 -0.523272 16.5108 -0.523272 17.7226 1.56982L29.5729 22.0443C30.7847 24.1374 29.2739 26.7656 26.8503 26.7656ZM13 9.38278C13 8.27821 13.8954 7.38278 15 7.38278C16.1046 7.38278 17 8.27821 17 9.38278V14.3828C17 15.4874 16.1046 16.3828 15 16.3828C13.8954 16.3828 13 15.4874 13 14.3828V9.38278ZM15 18.3828C13.8954 18.3828 13 19.2782 13 20.3828C13 21.4874 13.8954 22.3828 15 22.3828C16.1046 22.3828 17 21.4874 17 20.3828C17 19.2782 16.1046 18.3828 15 18.3828Z" fill='currentColor'/>
</svg>
